<svg
 xmlns="http://www.w3.org/2000/svg"
 xmlns:xlink="http://www.w3.org/1999/xlink"
 width="500px" height="500px">
<path id="sliders" fill-rule="evenodd"  fill="#000000"
 d="M-0.000,49.896 L99.792,49.896 L99.792,-0.000 L174.636,-0.000 L174.636,49.896 L500.000,49.896 L500.000,99.792 L174.636,99.792 L174.636,149.688 L99.792,149.688 L99.792,99.792 L-0.000,99.792 L-0.000,49.896 ZM-0.000,224.532 L375.260,224.532 L375.260,174.636 L450.104,174.636 L450.104,224.532 L500.000,224.532 L500.000,275.468 L450.104,275.468 L450.104,325.364 L375.260,325.364 L375.260,275.468 L-0.000,275.468 L-0.000,224.532 ZM-0.000,400.208 L199.584,400.208 L199.584,350.312 L275.468,350.312 L275.468,400.208 L500.000,400.208 L500.000,450.104 L275.468,450.104 L275.468,500.000 L199.584,500.000 L199.584,450.104 L-0.000,450.104 L-0.000,400.208 Z"/>
</svg>
