<svg 
 xmlns="http://www.w3.org/2000/svg"
 xmlns:xlink="http://www.w3.org/1999/xlink"
 width="11px" height="25px">
<path id="chain_link" fill-rule="evenodd" fill="#000000"
 d="M6.613,24.719 C4.406,24.719 2.617,22.930 2.617,20.723 L2.616,13.873 C2.616,12.154 3.701,10.688 5.225,10.124 C5.220,11.802 5.071,11.882 5.053,12.623 C4.778,12.965 4.614,13.400 4.614,13.873 L4.615,20.723 C4.615,21.827 5.509,22.721 6.613,22.721 C7.716,22.721 8.611,21.826 8.610,20.723 L8.610,13.873 C8.610,13.783 8.604,13.695 8.592,13.609 C8.954,12.496 8.677,11.549 8.785,10.519 C9.882,11.231 10.608,12.467 10.608,13.872 L10.608,20.722 C10.609,22.929 8.820,24.718 6.613,24.719 ZM5.554,15.397 C5.484,14.478 5.400,14.302 5.635,12.916 C5.898,12.578 6.055,12.153 6.055,11.691 L6.054,4.841 C6.054,3.737 5.159,2.843 4.056,2.843 C2.952,2.843 2.058,3.738 2.058,4.841 L2.059,11.691 C2.059,11.832 2.074,11.970 2.101,12.103 C1.982,13.318 1.748,12.526 1.794,14.985 C0.748,14.265 0.061,13.058 0.061,11.692 L0.060,4.841 C0.060,2.635 1.849,0.845 4.056,0.845 C6.262,0.845 8.052,2.634 8.052,4.840 L8.053,11.691 C8.053,13.368 7.019,14.805 5.554,15.397 Z"/>
</svg>