<svg 
 xmlns="http://www.w3.org/2000/svg"
 xmlns:xlink="http://www.w3.org/1999/xlink"
 width="100px" height="77px">
<path id="u_shape_color" fill-rule="evenodd"  fill="#000000"
 d="M1.758,36.177 C-0.406,38.843 -0.638,40.929 1.449,43.287 C3.614,45.644 32.213,74.508 33.604,75.744 C35.536,77.367 38.628,77.483 40.406,75.744 C43.498,72.846 97.758,18.441 99.150,16.702 C100.464,14.886 100.077,12.568 99.150,11.447 C97.758,9.940 89.952,2.135 88.019,0.628 C86.860,-0.261 84.618,-0.415 82.763,1.555 C80.908,3.526 37.314,47.305 37.314,47.305 C37.314,47.305 18.609,28.642 16.599,26.903 C14.821,25.473 12.425,25.628 10.725,27.521 C8.792,29.453 5.082,32.815 1.758,36.177 Z"/>
</svg>