<svg 
 xmlns="http://www.w3.org/2000/svg"
 xmlns:xlink="http://www.w3.org/1999/xlink"
 width="32px" height="8px">
<path id="dot" fill-rule="evenodd" fill="#000000"
 d="M4.000,-0.000 C6.209,-0.000 8.000,1.791 8.000,4.000 C8.000,6.209 6.209,8.000 4.000,8.000 C1.791,8.000 -0.000,6.209 -0.000,4.000 C-0.000,1.791 1.791,-0.000 4.000,-0.000 Z"/>
<path id="dot" fill-rule="evenodd" fill="#000000" transform="translate(12, 0)"
 d="M4.000,-0.000 C6.209,-0.000 8.000,1.791 8.000,4.000 C8.000,6.209 6.209,8.000 4.000,8.000 C1.791,8.000 -0.000,6.209 -0.000,4.000 C-0.000,1.791 1.791,-0.000 4.000,-0.000 Z"/>
<path id="dot" fill-rule="evenodd" fill="#000000" transform="translate(24, 0)"
 d="M4.000,-0.000 C6.209,-0.000 8.000,1.791 8.000,4.000 C8.000,6.209 6.209,8.000 4.000,8.000 C1.791,8.000 -0.000,6.209 -0.000,4.000 C-0.000,1.791 1.791,-0.000 4.000,-0.000 Z"/>
</svg>