<svg 
 xmlns="http://www.w3.org/2000/svg"
 xmlns:xlink="http://www.w3.org/1999/xlink"
 width="331px" height="304px">
  <path fill-rule="evenodd" fill="#ffffff" transform="translate(0, 134)"
    d="M76.1000,5.1000 C61.500,13.500 44.500,24.1000 69.1000,43.1000 C95.500,62.1000 104.1000,92.500 76.1000,115.1000 C48.1000,139.500 13.500,111.500 3.1000,84.1000 C-5.500,58.500 6.1000,27.1000 29.1000,12.1000 C52.1000,-2.000 92.500,-1.500 76.1000,5.1000 Z"/>
  <path id="bucket" fill-rule="evenodd" fill="#000000" transform="translate(58, 0)"
    d="M272.1000,182.1000 C265.1000,208.500 174.500,302.500 149.1000,303.1000 C142.500,300.500 -0.000,151.1000 -0.000,151.1000 L119.1000,29.1000 C119.1000,29.1000 124.995,34.831 133.155,42.752 C148.734,26.670 174.185,1.694 177.1000,0.1000 C195.285,-0.975 253.527,32.661 196.184,104.308 C234.289,141.789 272.500,180.002 272.1000,182.1000 ZM178.1000,31.1000 C178.1000,31.1000 161.173,47.688 149.938,59.070 C158.238,67.151 167.714,76.395 177.646,86.119 C216.976,34.566 178.1000,31.1000 178.1000,31.1000 Z"/>
</svg>