<svg 
 xmlns="http://www.w3.org/2000/svg"
 xmlns:xlink="http://www.w3.org/1999/xlink"
 width="18px" height="18px">
<path id="u_shape_color" fill-rule="evenodd"  fill="#000000"
 d="M-0.000,-0.000 L-0.000,2.000 L1.000,2.000 L1.000,1.000 L2.000,1.000 L2.000,-0.000 L-0.000,-0.000 ZM4.000,-0.000 L4.000,1.000 L6.000,1.000 L6.000,-0.000 L4.000,-0.000 ZM8.000,-0.000 L8.000,1.000 L10.000,1.000 L10.000,-0.000 L8.000,-0.000 ZM12.000,-0.000 L12.000,1.000 L14.000,1.000 L14.000,-0.000 L12.000,-0.000 ZM16.000,-0.000 L18.000,-0.000 L18.000,2.000 L17.000,2.000 L17.000,1.000 L16.000,1.000 L16.000,-0.000 ZM17.000,4.000 L18.000,4.000 L18.000,6.000 L17.000,6.000 L17.000,4.000 ZM17.000,8.000 L18.000,8.000 L18.000,10.000 L17.000,10.000 L17.000,8.000 ZM17.000,12.000 L18.000,12.000 L18.000,14.000 L17.000,14.000 L17.000,12.000 ZM17.000,16.000 L18.000,16.000 L18.000,18.000 L16.000,18.000 L16.000,17.000 L17.000,17.000 L17.000,16.000 ZM12.000,17.000 L14.000,17.000 L14.000,18.000 L12.000,18.000 L12.000,17.000 ZM8.000,17.000 L10.000,17.000 L10.000,18.000 L8.000,18.000 L8.000,17.000 ZM4.000,17.000 L6.000,17.000 L6.000,18.000 L4.000,18.000 L4.000,17.000 ZM-0.000,16.000 L1.000,16.000 L1.000,17.000 L2.000,17.000 L2.000,18.000 L-0.000,18.000 L-0.000,16.000 ZM-0.000,12.000 L1.000,12.000 L1.000,14.000 L-0.000,14.000 L-0.000,12.000 ZM-0.000,8.000 L1.000,8.000 L1.000,10.000 L-0.000,10.000 L-0.000,8.000 ZM-0.000,4.000 L1.000,4.000 L1.000,6.000 L-0.000,6.000 L-0.000,4.000 Z"/>
</svg>