<svg 
 xmlns="http://www.w3.org/2000/svg"
 xmlns:xlink="http://www.w3.org/1999/xlink"
 width="20px" height="20px">
<path id="circled_i" fill-rule="evenodd"  fill="#000000"
 d="M10.000,20.000 C4.477,20.000 0.000,15.523 0.000,10.000 C0.000,4.477 4.477,0.000 10.000,0.000 C15.523,0.000 20.000,4.477 20.000,10.000 C20.000,15.523 15.523,20.000 10.000,20.000 ZM10.000,2.222 C5.704,2.222 2.222,5.704 2.222,10.000 C2.222,14.296 5.704,17.778 10.000,17.778 C14.296,17.778 17.778,14.296 17.778,10.000 C17.778,5.704 14.296,2.222 10.000,2.222 ZM10.111,15.556 L9.889,15.556 C9.337,15.556 8.889,15.108 8.889,14.556 L8.889,8.778 C8.889,8.225 9.337,7.778 9.889,7.778 L10.111,7.778 C10.663,7.778 11.111,8.225 11.111,8.778 L11.111,14.556 C11.111,15.108 10.663,15.556 10.111,15.556 ZM10.111,6.667 L9.889,6.667 C9.337,6.667 8.889,6.219 8.889,5.667 L8.889,5.444 C8.889,4.892 9.337,4.444 9.889,4.444 L10.111,4.444 C10.663,4.444 11.111,4.892 11.111,5.444 L11.111,5.667 C11.111,6.219 10.663,6.667 10.111,6.667 Z"/>
</svg>