<svg 
 xmlns="http://www.w3.org/2000/svg"
 xmlns:xlink="http://www.w3.org/1999/xlink"
 width="17px" height="6px">
<path id="text" fill-rule="evenodd"  fill="#000000"
 d="M-0.000,6.000 L-0.000,-0.000 L1.000,-0.000 L1.000,5.000 L3.000,5.000 L3.000,6.000 L-0.000,6.000 ZM4.000,6.000 L4.000,4.000 L5.000,4.000 L5.000,5.000 L6.000,5.000 L6.000,4.000 L5.000,4.000 L5.000,3.000 L4.000,3.000 L4.000,2.000 L6.000,2.000 L6.000,3.000 L7.000,3.000 L7.000,6.000 L4.000,6.000 ZM8.000,6.000 L8.000,-0.000 L9.000,-0.000 L9.000,2.000 L11.000,2.000 L11.000,3.000 L12.000,3.000 L12.000,5.000 L11.000,5.000 L11.000,6.000 L8.000,6.000 ZM9.000,5.000 L9.000,3.000 L11.000,3.000 L11.000,5.000 L9.000,5.000 ZM13.000,6.000 L13.000,5.000 L12.000,5.000 L12.000,3.000 L13.000,3.000 L13.000,2.000 L15.000,2.000 L15.000,3.000 L16.000,3.000 L16.000,4.000 L13.000,4.000 L13.000,5.000 L15.000,5.000 L15.000,6.000 L13.000,6.000 ZM16.000,6.000 L16.000,-0.000 L17.000,-0.000 L17.000,6.000 L16.000,6.000 Z"/>
</svg>