<svg 
 xmlns="http://www.w3.org/2000/svg"
 xmlns:xlink="http://www.w3.org/1999/xlink"
 width="23px" height="23px">
<path id="plus" fill-rule="evenodd"  fill="#000000"
 d="M21.000,14.056 L14.056,14.056 L14.056,21.000 C14.056,22.105 13.160,23.000 12.056,23.000 L10.944,23.000 C9.840,23.000 8.944,22.105 8.944,21.000 L8.944,14.056 L2.000,14.056 C0.895,14.056 -0.000,13.160 -0.000,12.056 L-0.000,10.944 C-0.000,9.840 0.895,8.944 2.000,8.944 L8.944,8.944 L8.944,2.000 C8.944,0.895 9.840,-0.000 10.944,-0.000 L12.056,-0.000 C13.160,-0.000 14.056,0.895 14.056,2.000 L14.056,8.944 L21.000,8.944 C22.105,8.944 23.000,9.840 23.000,10.944 L23.000,12.056 C23.000,13.160 22.105,14.056 21.000,14.056 Z"/>
</svg>