<svg 
 xmlns="http://www.w3.org/2000/svg"
 xmlns:xlink="http://www.w3.org/1999/xlink"
 width="14px" height="26px">
<path id="overrides_icon" fill-rule="evenodd" fill="#000000"
 d="M10.676,13.018 C12.457,14.217 13.630,16.252 13.630,18.562 C13.630,22.204 10.719,25.109 6.953,25.105 C3.187,25.101 0.276,22.204 0.276,18.562 C0.276,14.919 3.264,11.888 6.953,11.888 C9.860,12.016 11.346,9.873 11.338,7.478 C11.328,4.882 9.524,3.094 6.953,3.094 C4.783,3.194 4.716,0.801 6.953,0.801 C10.692,0.768 13.630,3.791 13.630,7.478 C13.630,9.787 12.457,11.820 10.676,13.018 ZM2.569,18.562 C2.564,20.938 4.337,22.974 6.953,22.946 C9.375,22.946 11.304,20.999 11.338,18.562 C11.371,16.125 9.703,14.136 6.955,14.158 C4.206,14.181 2.573,16.184 2.569,18.562 ZM6.953,21.232 C5.478,21.232 4.282,20.037 4.282,18.562 C4.282,17.087 5.478,15.891 6.953,15.891 C8.428,15.891 9.624,17.087 9.624,18.562 C9.624,20.037 8.428,21.232 6.953,21.232 ZM9.624,7.478 C9.624,8.953 8.428,10.149 6.953,10.149 C5.478,10.149 4.282,8.953 4.282,7.478 C4.282,6.003 5.478,4.807 6.953,4.807 C8.428,4.807 9.624,6.003 9.624,7.478 Z"/>
</svg>