<svg 
 xmlns="http://www.w3.org/2000/svg"
 xmlns:xlink="http://www.w3.org/1999/xlink"
 width="501px" height="179px">
<path id="bars" fill-rule="evenodd" fill="#000000"
 d="M499.219,178.843 L1.304,178.843 C0.832,178.843 0.450,178.460 0.450,177.989 L0.450,146.389 C0.450,145.917 0.832,145.535 1.304,145.535 L499.219,145.535 C499.690,145.535 500.073,145.917 500.073,146.389 L500.073,177.989 C500.073,178.460 499.690,178.843 499.219,178.843 ZM499.219,100.862 L1.304,100.862 C0.832,100.862 0.450,100.479 0.450,100.008 L0.450,68.408 C0.450,67.936 0.832,67.554 1.304,67.554 L499.219,67.554 C499.690,67.554 500.073,67.936 500.073,68.408 L500.073,100.008 C500.073,100.479 499.690,100.862 499.219,100.862 ZM499.219,34.245 L1.304,34.245 C0.832,34.245 0.450,33.863 0.450,33.391 L0.450,1.791 C0.450,1.320 0.832,0.937 1.304,0.937 L499.219,0.937 C499.690,0.937 500.073,1.320 500.073,1.791 L500.073,33.391 C500.073,33.863 499.690,34.245 499.219,34.245 Z"/>
</svg>