<svg
 xmlns="http://www.w3.org/2000/svg"
 xmlns:xlink="http://www.w3.org/1999/xlink"
 width="555px" height="555px">
<path id="gear" fill-rule="evenodd"  fill="#2b2b2b" transform="translate(27 27)" 
 d="M250.000,167.000 C334.333,166.667 332.667,249.000 333.000,249.000 C333.333,249.000 332.333,332.667 249.000,333.000 C165.667,333.333 167.000,249.000 167.000,249.000 C167.000,249.000 165.667,167.333 250.000,167.000 ZM180.000,43.000 L208.000,-0.000 L291.000,-0.000 C291.000,-0.000 320.122,44.079 320.000,44.000 C320.020,44.360 361.000,56.000 361.000,56.000 L417.000,28.000 L472.000,83.000 C472.000,83.000 444.142,139.075 444.000,139.000 C443.852,138.945 458.000,181.000 458.000,181.000 L500.000,209.000 L500.000,294.000 L457.000,320.000 C457.000,320.000 444.007,360.264 444.000,360.000 C444.156,360.061 472.000,416.000 472.000,416.000 L417.000,472.000 C417.000,472.000 361.373,444.291 361.000,444.000 C361.011,444.420 319.000,457.000 319.000,457.000 L292.000,500.000 L207.000,500.000 L180.000,457.000 C180.000,457.000 138.762,444.515 139.000,444.000 C138.814,444.218 83.000,472.000 83.000,472.000 L28.000,417.000 C28.000,417.000 55.970,361.090 56.000,361.000 C56.000,361.000 42.000,321.000 42.000,321.000 L-0.000,293.000 L-0.000,208.000 L42.000,181.000 C42.000,181.000 56.194,139.265 56.000,139.000 C55.803,138.813 28.000,83.000 28.000,83.000 L83.000,28.000 C83.000,28.000 139.170,55.960 139.000,56.000 C139.200,55.850 180.000,43.000 180.000,43.000 Z"/>
 <animateTransform attributeType="xml" attributeName="transform" type="rotate" from="0 277.5 277.5" to="360 277.5 277.5" dur="4.63s" additive="sum" repeatCount="indefinite" />
</svg>
