<svg 
 xmlns="http://www.w3.org/2000/svg"
 xmlns:xlink="http://www.w3.org/1999/xlink"
 width="16px" height="17px">
    <path id="x_diag_1" fill-rule="evenodd" fill="#000000"
     d="M1.015,1.308 C0.234,2.089 0.234,3.355 1.015,4.136 L12.328,15.450 C13.109,16.231 14.376,16.231 15.157,15.450 C15.938,14.669 15.938,13.402 15.157,12.621 L3.843,1.308 C3.062,0.527 1.796,0.527 1.015,1.308 Z"/>
    <path id="x_diag_2" fill-rule="evenodd" fill="#000000"
     d="M14.985,1.308 C15.766,2.089 15.766,3.355 14.985,4.136 L3.672,15.450 C2.891,16.231 1.624,16.231 0.843,15.450 C0.062,14.669 0.062,13.402 0.843,12.621 L12.157,1.308 C12.938,0.527 14.204,0.527 14.985,1.308 Z"/>
</svg>