<svg
 xmlns="http://www.w3.org/2000/svg"
 xmlns:xlink="http://www.w3.org/1999/xlink"
 width="550px" height="550px">
<path id="pencil_ruler" fill-rule="evenodd" fill="#000000"
 d="M52.500,502.500 L52.500,402.500 L327.500,127.500 L427.500,227.500 L152.500,502.500 L52.500,502.500 ZM352.500,102.500 L402.500,52.500 L502.500,152.500 L452.500,202.500 L352.500,102.500 ZM102.500,277.500 L152.500,227.500 L102.500,177.500 L177.500,102.500 L202.500,127.500 L152.500,177.500 L177.500,202.500 L277.500,102.500 L190.500,15.500 L15.500,190.500 L102.500,277.500 ZM327.500,402.500 L377.500,452.500 L452.500,377.500 L427.500,352.500 L377.500,402.500 L352.500,377.500 L452.500,277.500 L540.500,365.500 L365.500,540.500 L277.500,452.500 L327.500,402.500 Z"/>
</svg>
