<svg 
 xmlns="http://www.w3.org/2000/svg"
 xmlns:xlink="http://www.w3.org/1999/xlink"
 width="20px" height="20px">
<path id="titlebar" fill-rule="evenodd" fill="#000000"
 d="M0.000,-0.000 L0.000,4.000 L20.000,4.000 L20.000,-0.000 L0.000,-0.000 ZM1.000,1.000 L1.000,3.000 L3.000,3.000 L3.000,1.000 L1.000,1.000 ZM14.000,3.000 L14.000,1.000 L15.000,1.000 L15.000,3.000 L14.000,3.000 ZM16.000,3.000 L16.000,1.000 L17.000,1.000 L17.000,3.000 L16.000,3.000 Z"/>
<path fill-rule="evenodd" fill="rgb(227, 48, 52)" transform="translate(18,1)"
 d="M-0.000,-0.000 L-0.000,2.000 L1.000,2.000 L1.000,-0.000 L-0.000,-0.000 Z"/>
<path id="titlebar" fill-rule="evenodd" fill="#000000" opacity="0.8" transform="translate(0,4)"
 d="M-0.000,-0.000 L-0.000,2.000 L1.000,2.000 L1.000,-0.000 L-0.000,-0.000 Z"/>
<path id="titlebar" fill-rule="evenodd" fill="#000000" opacity="0.6" transform="translate(0,6)"
 d="M-0.000,-0.000 L-0.000,2.000 L1.000,2.000 L1.000,-0.000 L-0.000,-0.000 Z"/>
<path id="titlebar" fill-rule="evenodd" fill="#000000" opacity="0.4" transform="translate(0,8)"
 d="M-0.000,-0.000 L-0.000,2.000 L1.000,2.000 L1.000,-0.000 L-0.000,-0.000 Z"/>
<path id="titlebar" fill-rule="evenodd" fill="#000000" opacity="0.3" transform="translate(0,10)"
 d="M-0.000,-0.000 L-0.000,2.000 L1.000,2.000 L1.000,-0.000 L-0.000,-0.000 Z"/>
<path id="titlebar" fill-rule="evenodd" fill="#000000" opacity="0.2" transform="translate(0,12)"
 d="M-0.000,-0.000 L-0.000,2.000 L1.000,2.000 L1.000,-0.000 L-0.000,-0.000 Z"/>
<path id="titlebar" fill-rule="evenodd" fill="#000000" opacity="0.15" transform="translate(0,14)"
 d="M-0.000,-0.000 L-0.000,2.000 L1.000,2.000 L1.000,-0.000 L-0.000,-0.000 Z"/>
<path id="titlebar" fill-rule="evenodd" fill="#000000" opacity="0.10" transform="translate(0,16)"
 d="M-0.000,-0.000 L-0.000,2.000 L1.000,2.000 L1.000,-0.000 L-0.000,-0.000 Z"/>
<path id="titlebar" fill-rule="evenodd" fill="#000000" opacity="0.05" transform="translate(0,18)"
 d="M-0.000,-0.000 L-0.000,2.000 L1.000,2.000 L1.000,-0.000 L-0.000,-0.000 Z"/>
<path id="titlebar" fill-rule="evenodd" fill="#000000" opacity="0.8" transform="translate(19,4)"
 d="M-0.000,-0.000 L-0.000,2.000 L1.000,2.000 L1.000,-0.000 L-0.000,-0.000 Z"/>
<path id="titlebar" fill-rule="evenodd" fill="#000000" opacity="0.6" transform="translate(19,6)"
 d="M-0.000,-0.000 L-0.000,2.000 L1.000,2.000 L1.000,-0.000 L-0.000,-0.000 Z"/>
<path id="titlebar" fill-rule="evenodd" fill="#000000" opacity="0.4" transform="translate(19,8)"
 d="M-0.000,-0.000 L-0.000,2.000 L1.000,2.000 L1.000,-0.000 L-0.000,-0.000 Z"/>
<path id="titlebar" fill-rule="evenodd" fill="#000000" opacity="0.3" transform="translate(19,10)"
 d="M-0.000,-0.000 L-0.000,2.000 L1.000,2.000 L1.000,-0.000 L-0.000,-0.000 Z"/>
<path id="titlebar" fill-rule="evenodd" fill="#000000" opacity="0.2" transform="translate(19,12)"
 d="M-0.000,-0.000 L-0.000,2.000 L1.000,2.000 L1.000,-0.000 L-0.000,-0.000 Z"/>
<path id="titlebar" fill-rule="evenodd" fill="#000000" opacity="0.15" transform="translate(19,14)"
 d="M-0.000,-0.000 L-0.000,2.000 L1.000,2.000 L1.000,-0.000 L-0.000,-0.000 Z"/>
<path id="titlebar" fill-rule="evenodd" fill="#000000" opacity="0.10" transform="translate(19,16)"
 d="M-0.000,-0.000 L-0.000,2.000 L1.000,2.000 L1.000,-0.000 L-0.000,-0.000 Z"/>
<path id="titlebar" fill-rule="evenodd" fill="#000000" opacity="0.05" transform="translate(19,18)"
 d="M-0.000,-0.000 L-0.000,2.000 L1.000,2.000 L1.000,-0.000 L-0.000,-0.000 Z"/>
<path id="titlebar" fill-rule="evenodd" fill="#000000" opacity="0.05" transform="translate(1, 19)"
 d="M-0.000,-0.000 L18.000,-0.000 L18.000,1.000 L-0.000,1.000 L-0.000,-0.000 Z"/>
</svg>