<svg 
 xmlns="http://www.w3.org/2000/svg"
 xmlns:xlink="http://www.w3.org/1999/xlink"
 width="20px" height="20px">
    <path id="part1" fill-rule="evenodd" fill="#000000"
     d="M1.1000,15.1000 L17.1000,15.1000 C19.105,15.1000 19.1000,16.895 19.1000,17.1000 C19.1000,19.104 19.105,19.1000 17.1000,19.1000 L1.1000,19.1000 C0.895,19.1000 -0.000,19.104 -0.000,17.1000 C-0.000,16.895 0.895,15.1000 1.1000,15.1000 Z"/>
    <path id="part2" fill-rule="evenodd" fill="#000000"
     d="M11.1000,1.1000 L11.1000,17.1000 C11.1000,19.104 11.105,19.1000 9.1000,19.1000 C8.895,19.1000 7.1000,19.104 7.1000,17.1000 L7.1000,1.1000 C7.1000,0.895 8.895,-0.000 9.1000,-0.000 C11.105,-0.000 11.1000,0.895 11.1000,1.1000 Z"/>
    <path id="part3" fill-rule="evenodd" fill="#000000"
     d="M7.025,9.697 L11.268,13.939 C12.049,14.720 12.049,15.987 11.268,16.768 C10.487,17.549 9.220,17.549 8.439,16.768 L4.197,12.525 C3.416,11.744 3.416,10.478 4.197,9.697 C4.978,8.916 6.244,8.916 7.025,9.697 Z"/>
    <path id="part4" fill-rule="evenodd" fill="#000000"
     d="M8.197,13.475 L12.439,9.232 C13.220,8.451 14.487,8.451 15.268,9.232 C16.049,10.013 16.049,11.280 15.268,12.061 L11.025,16.303 C10.244,17.084 8.978,17.084 8.197,16.303 C7.416,15.522 7.416,14.256 8.197,13.475 Z"/>
</svg>